<?xml version="1.0" encoding="UTF-8"?>
<svg version="1.1" xmlns="http://www.w3.org/2000/svg" width="512" height="512">
<path d="M0 0 C0.86625 0.53625 1.7325 1.0725 2.625 1.625 C9.29559594 8.29559594 12.94924666 17.79619345 16.6875 26.3125 C17.20296387 27.48256592 17.71842773 28.65263184 18.24951172 29.8581543 C36.39925135 71.4038798 54.46471079 118.14157895 56 164 C56.03996094 164.79277344 56.07992187 165.58554688 56.12109375 166.40234375 C56.79741501 190.31228956 49.52257933 214.38525018 33 232 C23.25495895 242.01473775 11.2715791 248.80897502 -2 253 C-2.99515625 253.3196875 -3.9903125 253.639375 -5.015625 253.96875 C-28.98009699 260.34353565 -52.6631308 255.64023395 -74 244 C-93.93576331 232.14878587 -111.9162238 215.34129757 -126 197 C-126.51433594 196.33500488 -127.02867188 195.67000977 -127.55859375 194.98486328 C-150.56937242 165.05889391 -170.17633398 129.89708534 -180.25 93.375 C-180.4550415 92.64796875 -180.66008301 91.9209375 -180.87133789 91.171875 C-182.46997734 84.75025985 -182.32468089 78.35450108 -179.4375 72.3125 C-172.09509392 61.03852186 -156.73841999 58.16731028 -144.75097656 54.3112793 C-104.8444978 41.47204135 -65.62523788 24.88130846 -31 1 C-20.55646772 -6.16277308 -10.8005811 -6.72305835 0 0 Z " fill="#FDBB59" transform="translate(193,48)"/>
<path d="M0 0 C1.28612648 0.35901327 2.5724943 0.71716289 3.85908508 1.07450867 C6.57053701 1.82880238 9.28071057 2.58745575 11.9899292 3.34973145 C19.01036712 5.32374015 26.04039392 7.26320471 33.0703125 9.203125 C33.75816582 9.39314968 34.44601913 9.58317436 35.15471649 9.77895737 C45.8982404 12.74503021 56.65680106 15.6184824 67.49609375 18.21484375 C69.37566772 18.66621704 69.37566772 18.66621704 71.29321289 19.12670898 C77.04196395 20.47708675 82.79881052 21.7159286 88.59765625 22.83203125 C89.70383301 23.04762695 90.81000977 23.26322266 91.94970703 23.48535156 C93.95715575 23.86798767 95.96837189 24.23175525 97.98388672 24.56933594 C105.03682214 25.88313068 111.11680708 28.61195356 116.02734375 34.01098633 C120.25273261 40.35189912 120.12672926 48.73925552 118.8359375 55.98266602 C118.42688186 57.91913602 118.00034076 59.85197496 117.55859375 61.78125 C117.21867401 63.35137344 117.21867401 63.35137344 116.87188721 64.95321655 C116.1386061 68.3152665 115.38116563 71.67125804 114.62109375 75.02734375 C114.10717558 77.34370459 113.59383101 79.66019276 113.08105469 81.97680664 C109.67724857 97.24799697 106.22101409 112.50172261 101.62109375 127.46484375 C101.35409668 128.34398437 101.08709961 129.223125 100.81201172 130.12890625 C90.86921699 162.24904835 72.37913537 188.68091451 42.37963867 204.68115234 C22.50978828 214.83847311 -0.74483714 215.07568392 -21.73046875 208.3984375 C-39.82602597 201.97811685 -52.72606624 190.52313492 -61.62890625 173.58984375 C-70.92452867 153.96294533 -71.9161237 132.86608121 -69.19140625 111.65234375 C-69.09061768 110.83693115 -68.9898291 110.02151855 -68.88598633 109.18139648 C-66.62373549 93.27861099 -61.70682926 77.80765155 -56.8454895 62.54541016 C-52.34289875 48.40462691 -47.98056226 34.30155237 -44.73486328 19.81030273 C-42.75508238 11.44729143 -39.70038711 3.35428827 -32.31640625 -1.59765625 C-21.91466112 -7.14133586 -10.7034459 -3.04479984 0 0 Z " fill="#FC5198" transform="translate(333.37890625,220.53515625)"/>
<path d="M0 0 C7.45344461 5.05772679 12.52931537 8.63406967 14.89086914 17.74291992 C15.1808101 26.15120776 11.8930854 33.60678058 8.70336914 41.24291992 C4.71023182 50.97771703 1.00110769 60.78120831 -2.59619141 70.66696167 C-15.48634979 106.01338865 -30.32518328 144.29096377 -66.01538086 161.86010742 C-68.97129367 163.17471075 -71.92690571 164.31149657 -74.98413086 165.36791992 C-75.90709961 165.68760742 -76.83006836 166.00729492 -77.78100586 166.33666992 C-97.82301505 172.06295826 -119.52050367 168.99340573 -137.69897461 159.34057617 C-155.06931786 148.91010846 -165.50019993 133.2909703 -170.35913086 113.93041992 C-172.58572794 104.49158447 -173.18935151 95.52906498 -173.23413086 85.86791992 C-173.25475586 84.81733398 -173.27538086 83.76674805 -173.29663086 82.68432617 C-173.40015309 60.5046877 -168.46637284 38.7078149 -163.92163086 17.11791992 C-163.1026089 13.19498055 -162.28890453 9.27094519 -161.47596741 5.34674072 C-160.97508707 2.9329226 -160.47111972 0.51974199 -159.96336365 -1.89263916 C-158.63461465 -8.25253788 -157.47974654 -14.58783315 -156.60084534 -21.02679443 C-155.29945393 -26.52447038 -151.80488113 -30.28819297 -147.35913086 -33.56958008 C-106.67274517 -51.7713842 -34.08707458 -22.29330466 0 0 Z " fill="#6FCDF7" transform="translate(413.984130859375,43.632080078125)"/>
<path d="M0 0 C0.70640625 -0.020625 1.4128125 -0.04125 2.140625 -0.0625 C8.15000204 -0.10717938 12.0168018 1.19787091 16.328125 5.39453125 C18.66444017 9.1072408 19.74731208 12.7207673 20.875 16.9375 C21.1210498 17.83106201 21.36709961 18.72462402 21.62060547 19.64526367 C50.59029283 127.01138191 50.59029283 127.01138191 26.38671875 171.51171875 C17.42850062 186.92299029 2.38000627 195.12139149 -14.2109375 200.2890625 C-35.02746254 205.48106292 -55.59006944 202.20743064 -73.875 191.25 C-77.47156772 188.83097519 -80.67775587 186.17347399 -83.875 183.25 C-84.37354492 182.79915039 -84.87208984 182.34830078 -85.38574219 181.88378906 C-111.4621453 158.0266543 -122.25867132 125.2528485 -133.1875 92.625 C-133.44239197 91.86454376 -133.69728394 91.10408752 -133.9598999 90.32058716 C-145.78822253 54.92221933 -145.78822253 54.92221933 -141.78515625 45.75390625 C-137.12658562 39.64727277 -130.83911873 35.71299924 -124.25 31.9375 C-123.01600464 31.23028809 -123.01600464 31.23028809 -121.75708008 30.50878906 C-85.55226031 10.22999326 -41.33254291 0.31194372 0 0 Z " fill="#5751A9" transform="translate(226.875,304.75)"/>
<path d="M0 0 C0.86625 0.53625 1.7325 1.0725 2.625 1.625 C9.29559594 8.29559594 12.94924666 17.79619345 16.6875 26.3125 C17.20296387 27.48256592 17.71842773 28.65263184 18.24951172 29.8581543 C36.39925135 71.4038798 54.46471079 118.14157895 56 164 C56.03996094 164.79277344 56.07992187 165.58554688 56.12109375 166.40234375 C56.79741501 190.31228956 49.52257933 214.38525018 33 232 C23.25495895 242.01473775 11.2715791 248.80897502 -2 253 C-2.99515625 253.3196875 -3.9903125 253.639375 -5.015625 253.96875 C-28.98009699 260.34353565 -52.6631308 255.64023395 -74 244 C-93.93576331 232.14878587 -111.9162238 215.34129757 -126 197 C-126.51433594 196.33500488 -127.02867188 195.67000977 -127.55859375 194.98486328 C-150.56937242 165.05889391 -170.17633398 129.89708534 -180.25 93.375 C-180.4550415 92.64796875 -180.66008301 91.9209375 -180.87133789 91.171875 C-182.46997734 84.75025985 -182.32468089 78.35450108 -179.4375 72.3125 C-172.09509392 61.03852186 -156.73841999 58.16731028 -144.75097656 54.3112793 C-104.8444978 41.47204135 -65.62523788 24.88130846 -31 1 C-20.55646772 -6.16277308 -10.8005811 -6.72305835 0 0 Z M-27.125 13.25 C-64.25854286 39.13317471 -106.73281638 54.93998532 -149.38671875 69.1328125 C-150.310896 69.44436279 -151.23507324 69.75591309 -152.18725586 70.0769043 C-153.81809438 70.62455656 -155.45272179 71.16114324 -157.09204102 71.68286133 C-162.00048848 73.33131656 -165.52904852 75.07607844 -169 79 C-170.11716939 85.83618886 -167.79387725 91.8199672 -165.5625 98.25 C-165.01952271 99.83663452 -165.01952271 99.83663452 -164.46557617 101.45532227 C-155.65132323 126.6532263 -143.17501333 151.05247693 -128 173 C-127.58685547 173.6084375 -127.17371094 174.216875 -126.74804688 174.84375 C-106.34526273 204.84974633 -78.36771899 234.21211537 -42 243 C-20.81006549 246.66566947 -1.90140911 241.78092491 15.91015625 230.08984375 C30.72816416 218.93625819 39.76487251 202.55177406 42.55859375 184.36328125 C46.13104927 154.00452575 39.02975675 122.64929898 28.76049805 94.22436523 C27.81237003 91.45120493 26.97648346 88.65042818 26.1328125 85.84375 C24.03708339 78.97822632 21.61636977 72.26956194 19.0625 65.5625 C18.59376465 64.33055908 18.1250293 63.09861816 17.64208984 61.8293457 C14.0092073 52.36070568 10.13479773 43.0021899 6.125 33.6875 C5.85454865 33.05433868 5.58409729 32.42117737 5.30545044 31.76882935 C-0.32383659 17.20277715 -0.32383659 17.20277715 -12 8 C-18.70122265 7.12168441 -21.95937814 9.47187205 -27.125 13.25 Z " fill="#302C47" transform="translate(193,48)"/>
<path d="M0 0 C1.28612648 0.35901327 2.5724943 0.71716289 3.85908508 1.07450867 C6.57053701 1.82880238 9.28071057 2.58745575 11.9899292 3.34973145 C19.01036712 5.32374015 26.04039392 7.26320471 33.0703125 9.203125 C33.75816582 9.39314968 34.44601913 9.58317436 35.15471649 9.77895737 C45.8982404 12.74503021 56.65680106 15.6184824 67.49609375 18.21484375 C69.37566772 18.66621704 69.37566772 18.66621704 71.29321289 19.12670898 C77.04196395 20.47708675 82.79881052 21.7159286 88.59765625 22.83203125 C89.70383301 23.04762695 90.81000977 23.26322266 91.94970703 23.48535156 C93.95715575 23.86798767 95.96837189 24.23175525 97.98388672 24.56933594 C105.03682214 25.88313068 111.11680708 28.61195356 116.02734375 34.01098633 C120.25273261 40.35189912 120.12672926 48.73925552 118.8359375 55.98266602 C118.42688186 57.91913602 118.00034076 59.85197496 117.55859375 61.78125 C117.21867401 63.35137344 117.21867401 63.35137344 116.87188721 64.95321655 C116.1386061 68.3152665 115.38116563 71.67125804 114.62109375 75.02734375 C114.10717558 77.34370459 113.59383101 79.66019276 113.08105469 81.97680664 C109.67724857 97.24799697 106.22101409 112.50172261 101.62109375 127.46484375 C101.35409668 128.34398437 101.08709961 129.223125 100.81201172 130.12890625 C90.86921699 162.24904835 72.37913537 188.68091451 42.37963867 204.68115234 C22.50978828 214.83847311 -0.74483714 215.07568392 -21.73046875 208.3984375 C-39.82602597 201.97811685 -52.72606624 190.52313492 -61.62890625 173.58984375 C-70.92452867 153.96294533 -71.9161237 132.86608121 -69.19140625 111.65234375 C-69.09061768 110.83693115 -68.9898291 110.02151855 -68.88598633 109.18139648 C-66.62373549 93.27861099 -61.70682926 77.80765155 -56.8454895 62.54541016 C-52.34289875 48.40462691 -47.98056226 34.30155237 -44.73486328 19.81030273 C-42.75508238 11.44729143 -39.70038711 3.35428827 -32.31640625 -1.59765625 C-21.91466112 -7.14133586 -10.7034459 -3.04479984 0 0 Z M-29.37890625 13.46484375 C-30.5875579 16.45619862 -30.5875579 16.45619862 -31.25390625 19.83984375 C-31.57095329 21.17557157 -31.89290968 22.51013997 -32.21875 23.84375 C-32.39647949 24.57609863 -32.57420898 25.30844727 -32.75732422 26.06298828 C-33.95233342 30.68062398 -35.40276408 35.22290181 -36.81640625 39.77734375 C-38.99414321 46.83304986 -41.08168594 53.89782243 -43.00390625 61.02734375 C-44.38279015 66.13903147 -45.92345784 71.07563107 -47.81640625 76.02734375 C-50.2576955 82.63820004 -51.96990237 89.36889717 -53.62890625 96.21484375 C-53.88728271 97.26873291 -54.14565918 98.32262207 -54.41186523 99.40844727 C-60.39800295 124.76326118 -59.93792436 151.72698416 -46.37890625 174.46484375 C-37.53627341 188.31310796 -23.8131415 195.68993315 -8.12890625 199.21484375 C12.57122132 202.97284083 31.11549229 198.16218177 48.42578125 186.58984375 C50.94880531 184.65525661 53.28623801 182.62270236 55.62109375 180.46484375 C56.5853125 179.59214844 57.54953125 178.71945312 58.54296875 177.8203125 C78.39734847 159.28913602 86.40766296 135.00539749 93.62109375 109.46484375 C93.85393066 108.64419434 94.08676758 107.82354492 94.32666016 106.97802734 C97.7936905 94.51779591 100.29429392 81.80731842 102.93359375 69.15234375 C103.11680176 68.28251862 103.30000977 67.41269348 103.48876953 66.51651001 C104.01576758 64.00470141 104.53278739 61.49104148 105.046875 58.9765625 C105.20597855 58.2230954 105.36508209 57.4696283 105.52900696 56.69332886 C107.30426189 48.46458712 107.30426189 48.46458712 104.96484375 40.71484375 C100.4331007 36.83049257 93.7869984 36.47648294 88.12109375 35.46484375 C86.15148576 35.08988233 84.18338015 34.70762772 82.21524048 34.32504272 C80.24939478 33.94356287 78.28241248 33.56795558 76.31542969 33.19238281 C71.2613822 32.19707079 66.25196926 31.0521491 61.24609375 29.83984375 C60.39587646 29.63415771 59.54565918 29.42847168 58.66967773 29.21655273 C51.98509009 27.58140279 45.32823583 25.84993916 38.69140625 24.03027344 C36.34679053 23.38992792 33.999654 22.75930131 31.65234375 22.12890625 C20.66812419 19.1682458 9.72932303 16.0799669 -1.17163086 12.82495117 C-16.41975198 7.22129854 -16.41975198 7.22129854 -29.37890625 13.46484375 Z " fill="#302B47" transform="translate(333.37890625,220.53515625)"/>
<path d="M0 0 C7.45344461 5.05772679 12.52931537 8.63406967 14.89086914 17.74291992 C15.1808101 26.15120776 11.8930854 33.60678058 8.70336914 41.24291992 C4.71023182 50.97771703 1.00110769 60.78120831 -2.59619141 70.66696167 C-15.48634979 106.01338865 -30.32518328 144.29096377 -66.01538086 161.86010742 C-68.97129367 163.17471075 -71.92690571 164.31149657 -74.98413086 165.36791992 C-75.90709961 165.68760742 -76.83006836 166.00729492 -77.78100586 166.33666992 C-97.82301505 172.06295826 -119.52050367 168.99340573 -137.69897461 159.34057617 C-155.06931786 148.91010846 -165.50019993 133.2909703 -170.35913086 113.93041992 C-172.58572794 104.49158447 -173.18935151 95.52906498 -173.23413086 85.86791992 C-173.25475586 84.81733398 -173.27538086 83.76674805 -173.29663086 82.68432617 C-173.40015309 60.5046877 -168.46637284 38.7078149 -163.92163086 17.11791992 C-163.1026089 13.19498055 -162.28890453 9.27094519 -161.47596741 5.34674072 C-160.97508707 2.9329226 -160.47111972 0.51974199 -159.96336365 -1.89263916 C-158.63461465 -8.25253788 -157.47974654 -14.58783315 -156.60084534 -21.02679443 C-155.29945393 -26.52447038 -151.80488113 -30.28819297 -147.35913086 -33.56958008 C-106.67274517 -51.7713842 -34.08707458 -22.29330466 0 0 Z M-143.98413086 -19.63208008 C-144.84985773 -16.95154148 -145.40188374 -14.6690665 -145.82788086 -11.92114258 C-145.9626886 -11.16488586 -146.09749634 -10.40862915 -146.23638916 -9.62945557 C-146.67064075 -7.17480186 -147.07706155 -4.71637266 -147.48413086 -2.25708008 C-147.9279097 0.28348961 -148.3793102 2.82261946 -148.83172607 5.36166382 C-149.13064113 7.03952307 -149.42740332 8.71776732 -149.72198486 10.39639282 C-150.85549249 16.81370484 -152.20929822 23.15673361 -153.73413086 29.49291992 C-155.99726244 39.04130092 -157.7299149 48.63446692 -158.98413086 58.36791992 C-159.08056885 59.10357178 -159.17700684 59.83922363 -159.27636719 60.59716797 C-160.09056963 67.60742926 -160.17028543 74.60048894 -160.16943359 81.65283203 C-160.1716161 83.66680184 -160.18983178 85.68021849 -160.20874023 87.6940918 C-160.23785059 107.44061336 -156.53740376 124.45272981 -142.98413086 139.36791992 C-131.2956356 150.71094242 -116.84131734 156.27888601 -100.67163086 156.80541992 C-84.66035272 156.45806781 -69.64165877 151.06847912 -56.98413086 141.36791992 C-56.15139648 140.73756836 -55.31866211 140.1072168 -54.46069336 139.45776367 C-28.51563714 117.56406482 -17.9156052 76.11600824 -6.75512695 45.30102539 C-6.18741228 43.73721102 -5.61922999 42.17356632 -5.05053711 40.61010742 C-4.78110794 39.86920364 -4.51167877 39.12829987 -4.23408508 38.36494446 C-2.81534134 34.50234834 -1.31364838 30.71818493 0.39868164 26.97338867 C2.18041309 23.47578034 2.18041309 23.47578034 2.45336914 19.80541992 C-2.63448421 7.63881409 -24.81001762 -0.24148368 -36.20483398 -4.96801758 C-42.48423201 -7.41148122 -48.83112354 -9.62506925 -55.23217773 -11.72729492 C-57.58139442 -12.49966868 -59.91574274 -13.30368312 -62.24975586 -14.12036133 C-82.98694057 -21.07344794 -106.6042972 -23.71953007 -128.35913086 -23.94458008 C-129.3169043 -23.97358398 -130.27467773 -24.00258789 -131.26147461 -24.0324707 C-132.18831055 -24.04084961 -133.11514648 -24.04922852 -134.07006836 -24.05786133 C-135.30829346 -24.07973511 -135.30829346 -24.07973511 -136.5715332 -24.10205078 C-140.03932575 -23.42652957 -141.56734001 -22.20301995 -143.98413086 -19.63208008 Z " fill="#2F2C48" transform="translate(413.984130859375,43.632080078125)"/>
<path d="M0 0 C0.70640625 -0.020625 1.4128125 -0.04125 2.140625 -0.0625 C8.15000204 -0.10717938 12.0168018 1.19787091 16.328125 5.39453125 C18.66444017 9.1072408 19.74731208 12.7207673 20.875 16.9375 C21.1210498 17.83106201 21.36709961 18.72462402 21.62060547 19.64526367 C50.59029283 127.01138191 50.59029283 127.01138191 26.38671875 171.51171875 C17.42850062 186.92299029 2.38000627 195.12139149 -14.2109375 200.2890625 C-35.02746254 205.48106292 -55.59006944 202.20743064 -73.875 191.25 C-77.47156772 188.83097519 -80.67775587 186.17347399 -83.875 183.25 C-84.37354492 182.79915039 -84.87208984 182.34830078 -85.38574219 181.88378906 C-111.4621453 158.0266543 -122.25867132 125.2528485 -133.1875 92.625 C-133.44239197 91.86454376 -133.69728394 91.10408752 -133.9598999 90.32058716 C-145.78822253 54.92221933 -145.78822253 54.92221933 -141.78515625 45.75390625 C-137.12658562 39.64727277 -130.83911873 35.71299924 -124.25 31.9375 C-123.01600464 31.23028809 -123.01600464 31.23028809 -121.75708008 30.50878906 C-85.55226031 10.22999326 -41.33254291 0.31194372 0 0 Z M-44.875 17.25 C-45.75736328 17.41338867 -46.63972656 17.57677734 -47.54882812 17.74511719 C-74.84862406 22.93457242 -101.59150584 31.82432267 -124.875 47.25 C-126.31939453 48.03117187 -126.31939453 48.03117187 -127.79296875 48.828125 C-130.68360363 52.19058959 -130.59822316 54.51822927 -130.390625 58.86914062 C-129.3025199 66.00364791 -126.76979113 72.71671205 -124.375 79.5 C-123.81854595 81.11216155 -123.26346322 82.72479705 -122.7097168 84.33789062 C-121.61262809 87.52591905 -120.50634288 90.71050996 -119.39208984 93.89257812 C-118.09982666 97.58968881 -116.84681447 101.29844097 -115.61328125 105.015625 C-105.28166583 135.9720923 -91.10380643 167.21733316 -61.3125 183.625 C-60.71139404 183.95935059 -60.11028809 184.29370117 -59.4909668 184.63818359 C-46.91100617 191.2348886 -29.20119085 191.53333633 -15.75 187.625 C-13.77166366 186.88473594 -11.81158236 186.09347753 -9.875 185.25 C-8.85277344 184.82589844 -7.83054687 184.40179688 -6.77734375 183.96484375 C4.53787154 178.82936677 12.62130091 171.39629279 18.125 160.25 C18.50269531 159.50492188 18.88039062 158.75984375 19.26953125 157.9921875 C33.96486634 125.51934967 23.93583584 80.74790395 15.82128906 48.078125 C15.00539798 44.76421116 14.24194274 41.44005796 13.48388672 38.11254883 C11.21325787 24.18610511 11.21325787 24.18610511 5.125 12.25 C-11.47313056 11.51629089 -28.58945184 14.22116861 -44.875 17.25 Z " fill="#2F2B47" transform="translate(226.875,304.75)"/>
<path d="M0 0 C8.20167377 13.4638096 14.64631649 34.34231752 11.3515625 50.1015625 C8.30905339 60.3732813 2.15622775 67.51275713 -7 73 C-16.36514252 77.92741159 -26.94181567 78.53965296 -37.1875 76.3046875 C-53.02653743 71.06900568 -61.74092868 57.58750444 -70 44 C-70.56589844 43.07832031 -71.13179688 42.15664062 -71.71484375 41.20703125 C-74.30567205 36.80764691 -74.30567205 36.80764691 -75 35 C-73.61741894 30.85225683 -71.67622012 30.44854357 -67.8515625 28.41015625 C-67.21553101 28.06924454 -66.57949951 27.72833282 -65.92419434 27.37709045 C-63.83035758 26.26067361 -61.72851479 25.16056118 -59.625 24.0625 C-58.91003357 23.68583191 -58.19506714 23.30916382 -57.45843506 22.92108154 C-47.48600706 17.67321211 -37.41950488 12.71123608 -27.125 8.125 C-26.04686035 7.64426025 -24.9687207 7.16352051 -23.85791016 6.66821289 C-7.91547999 -0.26344225 -7.91547999 -0.26344225 0 0 Z " fill="#FDFDFD" transform="translate(189,176)"/>
<path d="M0 0 C7.39230093 6.132075 13.58697941 13.16929207 15.1015625 22.9140625 C15.46671718 29.73668935 14.07793154 35.89001482 9.6875 41.25 C6.40064055 44.27041359 3.40990728 46.13611438 -1.11132812 46.43505859 C-4.26999787 46.27468126 -7.41131155 46.01884298 -10.5625 45.75 C-19.5829218 45.13773141 -19.5829218 45.13773141 -27.3671875 49.01953125 C-29.46785261 51.23181379 -31.17770933 53.5901228 -32.8828125 56.11328125 C-36.33066755 60.56445103 -39.85924154 61.87014063 -45.33984375 62.71875 C-54.29878789 62.81495343 -58.74711773 60.65692083 -65.125 54.5625 C-70.69634865 46.12588633 -71.59650056 36.46180316 -69.84375 26.6171875 C-66.91474684 15.49394931 -60.97786843 7.43689793 -51.3125 1.25 C-35.15377697 -7.57454534 -16.12019385 -11.34613644 0 0 Z " fill="#312D49" transform="translate(216.3125,401.75)"/>
<path d="M0 0 C12.26192553 8.8978583 15.9286481 31.70634965 18.40625 45.74609375 C19.85004762 57.37732739 17.46738421 69.58771332 10.53125 79.24609375 C9.51636768 80.43613343 8.47472622 81.60392952 7.40625 82.74609375 C6.88289063 83.34679687 6.35953125 83.9475 5.8203125 84.56640625 C-2.80483063 93.92043472 -14.55987512 99.30585627 -27.2265625 100.12890625 C-41.91545047 100.66805554 -54.38568778 97.43268614 -65.86328125 87.8515625 C-75.09029907 79.14164551 -81.88456186 68.33573871 -88.21875 57.43359375 C-88.65695068 56.705354 -89.09515137 55.97711426 -89.54663086 55.22680664 C-92.41232119 50.12447995 -93.84949605 45.59453822 -92.59375 39.74609375 C-89.03992138 33.61311524 -83.37236954 31.05310029 -77.21875 27.87109375 C-76.2285083 27.34717041 -75.2382666 26.82324707 -74.21801758 26.28344727 C-72.23882012 25.23681045 -70.25717735 24.19478279 -68.27294922 23.15771484 C-66.06125635 21.9924143 -63.87092983 20.80201583 -61.69140625 19.578125 C-53.96740871 15.28701526 -46.0375981 11.58945249 -37.96875 7.99609375 C-36.94354248 7.53581787 -35.91833496 7.07554199 -34.86206055 6.60131836 C-9.4116137 -4.54989156 -9.4116137 -4.54989156 0 0 Z M-34.28125 19.68359375 C-34.90848969 19.9662207 -35.53572937 20.24884766 -36.18197632 20.54003906 C-51.41429379 27.41400174 -66.50953056 34.71648965 -80.59375 43.74609375 C-79.13442658 48.90985353 -76.82371987 53.0153027 -73.96875 57.49609375 C-73.52289551 58.19984131 -73.07704102 58.90358887 -72.61767578 59.62866211 C-64.69902859 71.95613839 -56.84796925 82.03688455 -42.59375 86.74609375 C-41.60375 87.07609375 -40.61375 87.40609375 -39.59375 87.74609375 C-27.17910986 88.61454908 -16.41986408 87.64895822 -6.4375 79.42578125 C1.74614494 71.970342 6.29400909 64.05688213 6.96875 52.74609375 C6.49560914 41.45597391 2.72004241 19.05988616 -5.59375 10.74609375 C-15.66983676 10.15908495 -25.35303294 15.63065214 -34.28125 19.68359375 Z " fill="#332E48" transform="translate(194.59375,165.25390625)"/>
<path d="M0 0 C2.875 1.5625 2.875 1.5625 6 4 C17.22702159 12.73212791 29.94251946 20.62942509 44.65234375 20.40234375 C47.46393354 19.92049059 49.44488543 18.87698426 51.9375 17.5 C56.95349262 14.76542458 61.34400586 13.71637012 67 15 C69.82424288 17.19022918 71.41508603 18.83017207 73 22 C74.23742336 38.59364446 74.23742336 38.59364446 69 45 C66.26220862 47.76827904 63.49561159 50.2521942 60 52 C59.5215371 53.90218177 59.11657607 55.82312579 58.75 57.75 C57.17780135 64.53061057 57.17780135 64.53061057 53.9375 67.1875 C49.86356683 69.70120344 47.83504589 70.46490826 43 70 C38.44364102 67.40912921 34.87774062 65.14558818 32.875 60.25 C31.95716707 56.84090625 31.42033982 53.50283183 31 50 C30.20078125 49.82984375 29.4015625 49.6596875 28.578125 49.484375 C13.40891014 46.13717735 -4.75045182 41.88947609 -13.75 28 C-17.73803301 21.40645209 -18.91261662 15.67273971 -18 8 C-14.002052 -0.2920403 -8.55998251 -2.20507599 0 0 Z " fill="#332D49" transform="translate(315,328)"/>
<path d="M0 0 C7.888221 5.19360284 12.99653962 13.36959977 15.22802734 22.41699219 C16.22524447 28.67475838 17.49513473 37.19924895 13.90380859 42.77636719 C10.41158328 46.36559876 8.04810549 48.52849385 2.90380859 48.65136719 C-3.06965731 48.45923817 -5.98504952 45.88513736 -10.34619141 42.08886719 C-11.93061936 40.85476501 -13.53591411 39.64708906 -15.15869141 38.46386719 C-15.88701172 37.91472656 -16.61533203 37.36558594 -17.36572266 36.79980469 C-26.47063383 31.57313222 -34.78319469 30.55453019 -45.15869141 30.58886719 C-59.39497481 30.63521428 -59.39497481 30.63521428 -64.34619141 26.08886719 C-67.43768773 22.48212148 -68.00301088 19.05135297 -67.81103516 14.42089844 C-66.55619708 8.12561837 -61.70309542 4.11700187 -56.78369141 0.40136719 C-38.57499499 -11.39505426 -18.50611213 -10.7871221 0 0 Z " fill="#312E4A" transform="translate(339.34619140625,111.9111328125)"/>
<path d="M0 0 C4.63114232 2.04569884 6.84481953 4.5348246 9.15234375 8.94921875 C10.76677263 18.27703007 5.52299204 26.54038965 0.71484375 34.19921875 C-7.5644641 45.76230271 -19.14334412 51.68667947 -32.796875 54.765625 C-37.865674 55.58317323 -41.99110763 55.22332533 -46.28515625 52.19921875 C-56.13952023 43.42016811 -56.13952023 43.42016811 -56.53515625 37.38671875 C-56.47228258 33.53046686 -55.80305786 31.23806552 -53.28515625 28.19921875 C-49.935288 25.95831203 -46.74240103 24.58909928 -42.91015625 23.38671875 C-33.18731812 19.84640821 -29.49961089 14.6232177 -25.2121582 5.49291992 C-19.70245215 -5.88478856 -10.1776236 -3.65778402 0 0 Z " fill="#2F2B47" transform="translate(421.28515625,419.80078125)"/>
<path d="M0 0 C1.12631836 0.01546875 1.12631836 0.01546875 2.27539062 0.03125 C6.35673776 0.21790792 8.14311234 0.55187447 11.47265625 3.1171875 C16.72971579 10.05454084 16.89895093 18.31234465 16.38671875 26.78125 C14.84942432 37.58889569 9.26625807 47.25320399 0.5625 53.875 C-7.56064963 58.6570084 -15.81997081 62.66565108 -25.4375 60.875 C-28.55993993 58.93546393 -30.9234778 56.53417359 -33.4375 53.875 C-34.241875 53.25625 -35.04625 52.6375 -35.875 52 C-38.31266836 48.68477104 -38.81483696 44.94337847 -38.4375 40.875 C-36.4326224 36.24568193 -34.04137115 34.8509736 -29.5 32.875 C-24.88324149 30.8612466 -22.27169551 29.08355017 -19.4375 24.875 C-18.02406502 20.63469505 -18.1916832 16.29657791 -18.18359375 11.85546875 C-18.04500035 7.9383816 -17.57425726 6.0503656 -15.140625 2.9296875 C-10.37118798 -0.69563602 -5.8102224 -0.25801158 0 0 Z " fill="#2F2B47" transform="translate(46.4375,285.125)"/>
<path d="M0 0 C0.91201172 -0.00386719 1.82402344 -0.00773437 2.76367188 -0.01171875 C3.70919922 -0.00011719 4.65472656 0.01148437 5.62890625 0.0234375 C6.57056641 0.01183594 7.51222656 0.00023438 8.48242188 -0.01171875 C13.49600822 0.00951027 17.16344633 0.05957867 21.19140625 3.3984375 C26.47008929 11.0525279 24.72251432 23.55067678 23.19140625 32.1484375 C20.53659166 43.40335571 14.73736888 57.3159491 5.19140625 64.3984375 C0.99867939 66.21706131 -2.20349835 65.91869371 -6.49609375 64.52734375 C-10.55817695 62.72656559 -13.25041515 61.1160957 -15.99609375 57.5859375 C-17.59781297 51.3022698 -15.56997383 45.32688894 -13.74609375 39.2734375 C-11.55398137 31.44827211 -11.5220747 23.93151664 -11.86889648 15.84912109 C-12.15896377 7.30098432 -12.15896377 7.30098432 -8.80859375 3.3984375 C-5.82936978 0.7589496 -3.96859921 0.01623781 0 0 Z " fill="#2F2B47" transform="translate(432.80859375,103.6015625)"/>
<path d="M0 0 C4.1800451 0.32876759 6.15986762 1.34866599 9 4.5625 C9.96433334 6.31886504 10.89883134 8.09175393 11.8125 9.875 C14.88361637 15.83376345 18.92604586 20.52552293 25 23.5625 C28.27439393 24.00820591 31.55263573 24.39524967 34.8359375 24.76953125 C38.4319505 25.67075426 39.74200287 26.67162007 42 29.5625 C43.18487306 33.19611071 43.28457385 34.89302178 41.78125 38.4296875 C39.9716379 41.61238246 38.02235104 44.1079083 35.5625 46.8125 C34.80066406 47.66328125 34.03882813 48.5140625 33.25390625 49.390625 C29.86131917 52.65973838 27.26136954 53.85826105 22.5625 53.9375 C8.71148674 53.59122467 -2.72760685 46.9401739 -12.4375 37.5 C-13.97860954 35.87313714 -15.50244236 34.22954004 -17 32.5625 C-17.49886719 32.0159375 -17.99773437 31.469375 -18.51171875 30.90625 C-21.06949152 27.67537913 -22.06221631 24.18548198 -21.91796875 20.1328125 C-19.95740514 14.64323438 -14.80673846 10.7400143 -10.52197266 6.95288086 C-9.0634708 5.62048303 -7.7057164 4.18027394 -6.35546875 2.73828125 C-3.95413408 0.52013297 -3.18447891 -0.10914545 0 0 Z " fill="#302B47" transform="translate(467,171.4375)"/>
<path d="M0 0 C2.50160818 1.87620613 3.61945652 3.23891303 5 6 C4.96816784 7.85494663 4.90006912 9.70934811 4.8125 11.5625 C4.78010811 18.32430735 5.87720427 23.76127682 10.68359375 28.74609375 C12.41181039 30.23644832 14.1680157 31.63982604 16 33 C18.42441934 34.80277335 19.73397327 35.89888066 20.44921875 38.859375 C21.00574665 45.83452465 17.93151182 51.40405252 14 57 C9.89236419 59.73842387 6.82247109 59.5953668 2 59 C-7.85015522 56.3246492 -15.41707804 51.05603726 -20.74609375 42.34375 C-25.50917362 33.44079698 -26.69847783 23.92083332 -23.8125 14.125 C-21.31387537 7.72805824 -17.42454449 3.50670756 -11.1875 0.6953125 C-7.42503744 -0.5006131 -3.87877015 -0.77880818 0 0 Z " fill="#302B47" transform="translate(49,8)"/>
<path d="M0 0 C4.39656063 3.49406513 9.51837299 8.1314476 10.2421875 13.9453125 C10.36791623 17.73114423 10.24897092 20.87642928 8 24 C5.36860233 25.31569884 3.55579449 25.01614424 0.6171875 24.88671875 C-0.46820313 24.85642578 -1.55359375 24.82613281 -2.671875 24.79492188 C-4.95124037 24.72401402 -7.23008575 24.63326658 -9.5078125 24.52148438 C-16.1938329 24.3756219 -20.31397652 24.86246294 -25.39941406 29.37182617 C-27.45580348 31.46365976 -29.44765041 33.5461093 -31.3125 35.8125 C-34.68335901 39.894453 -34.68335901 39.894453 -38 41 C-44.19814241 41.56346749 -44.19814241 41.56346749 -47.3125 39.375 C-51.13579638 33.99406436 -51.68782262 28.41262318 -51 22 C-48.92455002 12.81954241 -44.75816351 6.82094741 -36.90625 1.61328125 C-25.25695358 -4.85333088 -11.84505853 -6.90120957 0 0 Z " fill="#FBFBFB" transform="translate(209,411)"/>
<path d="M0 0 C1.68484495 3.35856882 1.32945415 6.46285754 1.12109375 10.109375 C0.97111325 16.32554337 0.87525881 21.52812869 5.18359375 26.359375 C7.4551116 28.23549542 9.79586452 29.97509064 12.17578125 31.7109375 C14.18359375 33.359375 14.18359375 33.359375 15.93359375 36.359375 C16.26991454 40.39522452 15.75732424 43.24914857 13.18359375 46.359375 C6.36773926 50.87618488 -0.61719875 53.17775164 -8.81640625 52.359375 C-15.57061138 50.3089913 -21.55104607 46.21960082 -25.17578125 40.04296875 C-30.21947873 28.95048915 -29.74514526 17.71973069 -26.9609375 5.98046875 C-25.45221159 2.52533195 -23.76520445 0.70862502 -20.81640625 -1.640625 C-17.44140625 -2.63671875 -17.44140625 -2.63671875 -13.81640625 -3.078125 C-12.02203125 -3.32369141 -12.02203125 -3.32369141 -10.19140625 -3.57421875 C-5.78227547 -3.66097248 -3.2759503 -2.95892285 0 0 Z " fill="#2F2C47" transform="translate(54.81640625,364.640625)"/>
<path d="M0 0 C7.35604855 3.35083807 12.8943731 8.62575368 16.109375 16.09765625 C18.37804757 23.37158767 17.62971469 29.81409414 14.5546875 36.73828125 C10.33541381 44.12796963 3.36216665 49.80135226 -4.828125 52.16015625 C-17.86731258 53.52992949 -17.86731258 53.52992949 -21.74609375 50.8203125 C-23.44098869 48.21984192 -23.21250555 46.17113719 -22.828125 43.16015625 C-19.44594352 40.9053686 -17.50822218 40.73645328 -13.515625 40.28515625 C-8.32250517 39.54080907 -4.83078165 38.75228401 -0.828125 35.16015625 C-0.044375 34.47953125 0.739375 33.79890625 1.546875 33.09765625 C4.04966182 28.57338777 3.93923658 24.21258644 3.171875 19.16015625 C1.12614114 15.70357146 -0.49592885 14.38162035 -3.828125 12.16015625 C-8.32186696 11.436445 -11.85513331 11.64387494 -15.890625 13.78515625 C-18.1232123 16.07331421 -18.1232123 16.07331421 -18.140625 19.41015625 C-18.0375 20.31765625 -17.934375 21.22515625 -17.828125 22.16015625 C-16.508125 22.82015625 -15.188125 23.48015625 -13.828125 24.16015625 C-13.704375 23.54140625 -13.580625 22.92265625 -13.453125 22.28515625 C-12.828125 20.16015625 -12.828125 20.16015625 -10.828125 18.16015625 C-8.08786247 17.80884054 -6.45198524 17.8159575 -4.015625 19.16015625 C-2.11238858 22.36560706 -2.19402483 25.59247179 -2.828125 29.16015625 C-5.00843428 32.74209293 -7.00212792 34.56248714 -10.828125 36.16015625 C-15.46010548 36.88442956 -18.94524147 36.6099271 -23.140625 34.47265625 C-26.87243834 31.26156105 -30.50408762 27.90984487 -31.1015625 22.83984375 C-31.3538093 15.87395138 -30.44804613 11.46763745 -25.828125 6.16015625 C-18.45482759 -1.2319987 -10.1135837 -3.00334323 0 0 Z " fill="#342C49" transform="translate(396.828125,288.83984375)"/>
<path d="M0 0 C2.73466147 1.70243683 5.01045553 3.45389486 7 6 C7.5625 8.75 7.5625 8.75 7 11 C5 13 5 13 2.375 13.3125 C-0.5746352 13.03938563 -2.11791099 12.62423235 -4.75 11.5 C-10.22604236 9.3263038 -15.80647212 8.65871829 -21.34375 10.984375 C-25.07303668 13.17330414 -27.40568349 14.87810852 -29 19 C-29.45066982 24.58830573 -29.22940481 28.21157218 -26 33 C-23.2027603 35.26803219 -21.52375446 35.94655567 -17.9375 36.3125 C-14.11984418 35.97412046 -14.11984418 35.97412046 -11 34 C-10.18129815 30.43793339 -10.18129815 30.43793339 -10 27 C-10.515625 27.33 -11.03125 27.66 -11.5625 28 C-14.86224134 29.35374004 -17.47013492 29.32683936 -21 29 C-23 26 -23 26 -22.9375 22.5625 C-22 19 -22 19 -20.0625 16.5625 C-15.67021206 14.32153677 -11.83781889 14.35336084 -7 15 C-2.3879802 16.8047034 -0.25835781 19.64459565 2 24 C3.62486045 30.06835637 3.1944741 34.46291156 0 40 C-3.96081343 44.7309716 -8.37819122 48.39914693 -14.54296875 49.421875 C-22.45792283 49.82376265 -28.89824969 47.64311578 -34.8515625 42.35546875 C-41.03806992 35.60516632 -42.64923021 29.33229472 -42.41015625 20.2890625 C-41.57660322 13.60476105 -38.68355436 8.25365592 -33.8125 3.625 C-23.5992538 -4.15652092 -11.65461703 -5.21441964 0 0 Z " fill="#332B48" transform="translate(342,277)"/>
<path d="M0 0 C6.5117682 3.97238934 10.76372339 9.71372784 13 17 C13.36202033 20.71423458 13.31782819 24.28494161 13 28 C9.82963413 27.41670758 8.19101573 26.52959043 5.875 24.3125 C-9.39968049 10.84623834 -26.57373414 10.2777233 -46 10 C-45.02220242 5.42402478 -43.13528488 4.09677388 -39.35546875 1.4609375 C-26.98721319 -6.21025252 -13.17903563 -5.95353218 0 0 Z " fill="#FAFAFB" transform="translate(330,120)"/>
<path d="M0 0 C3.99264074 0.5797277 6.23520954 2.61379479 9.3125 5.125 C21.17876052 14.38439141 36.08899771 20.76405288 51.32421875 20.3671875 C55.11236301 19.84735457 58.34854643 18.56302396 61.80859375 16.97265625 C63.86819456 16.05850188 65.80290549 15.47545325 68 15 C68.35399338 18.71693054 68.12439143 20.75121713 66.4375 24.125 C64.2629519 26.6898516 63.26784358 27.54884927 60.4375 29 C56.42816536 31.33270379 55.49973286 32.6674384 54 37 C53.51161191 39.67888119 53.23445993 42.28026485 53 45 C52.01 44.67 51.02 44.34 50 44 C49.96132813 43.00419922 49.96132813 43.00419922 49.921875 41.98828125 C49.66374594 37.96968107 49.37731546 34.75463093 47.5625 31.125 C41.6554899 26.22650382 34.32968852 24.78415839 27 23.0625 C18.39115201 21.03422686 7.78437086 18.03251196 2.81640625 10.11328125 C0.81581016 6.36822075 0 4.36800452 0 0 Z " fill="#F6F6F7" transform="translate(309,340)"/>
<path d="M0 0 C3.49415081 1.99166596 6.28808899 4.0812418 8.75 7.3125 C9.3125 10.4375 9.3125 10.4375 8.75 13.3125 C7.125 15.25 7.125 15.25 4.75 16.3125 C0.91484988 16.23090106 -0.77732195 15.7245783 -3.6875 13.1875 C-6.21737249 10.93144514 -6.21737249 10.93144514 -9.9375 11.4375 C-13.3019999 12.02912071 -13.3019999 12.02912071 -15.25 14.3125 C-15.56208427 16.61439984 -15.56208427 16.61439984 -15.625 19.1875 C-15.91005787 22.58853524 -16.07301992 24.04702989 -18 26.9375 C-20.72791767 28.6045608 -22.10842474 28.87637248 -25.25 28.3125 C-26.875 27.17578125 -26.875 27.17578125 -28.25 25.3125 C-29.07770451 19.79446994 -29.32398983 13.4657799 -26.75 8.375 C-19.86844858 -0.05490049 -10.57193829 -4.97502978 0 0 Z " fill="#352F47" transform="translate(114.25,157.6875)"/>
<path d="M0 0 C3.44241053 2.05526544 6.66475505 4.36466635 8.48828125 8.01171875 C8.90964682 10.89105011 8.90488442 12.34052475 7.36328125 14.82421875 C4.56134649 16.59877743 2.74426577 16.46755658 -0.51171875 16.01171875 C-1.31609375 15.35171875 -2.12046875 14.69171875 -2.94921875 14.01171875 C-5.45358531 11.7022097 -5.45358531 11.7022097 -9.13671875 11.57421875 C-12.4027522 11.71795074 -12.4027522 11.71795074 -14.19140625 13.26171875 C-15.82983312 15.43336147 -15.90263397 16.75391558 -16.01171875 19.44921875 C-16.25443615 22.2610769 -16.49882725 23.98390025 -17.69921875 26.57421875 C-19.51171875 28.01171875 -19.51171875 28.01171875 -22.51171875 28.44921875 C-25.51171875 28.01171875 -25.51171875 28.01171875 -27.1640625 26.8671875 C-30.18692305 22.70527804 -29.19709766 16.85993186 -28.51171875 12.01171875 C-26.40276683 6.81412448 -22.86275885 2.087718 -17.69140625 -0.39453125 C-11.93327849 -1.96305351 -5.59657873 -2.2020753 0 0 Z " fill="#342E47" transform="translate(176.51171875,127.98828125)"/>
<path d="M0 0 C3.125 0.25 3.125 0.25 5.0625 1.25 C6.83068516 4.57834853 6.09076699 7.7705929 5.125 11.25 C2.21473056 16.7471756 -1.87244007 21.24914669 -7.875 23.25 C-19.88848548 24.24030083 -19.88848548 24.24030083 -25.125 21.6875 C-27.875 19.25 -27.875 19.25 -29 15.6875 C-28.875 12.25 -28.875 12.25 -27.8125 10.3125 C-25.074384 8.81095252 -22.94655269 8.98859126 -19.875 9.25 C-19.215 9.58 -18.555 9.91 -17.875 10.25 C-13.84297512 10.57050792 -13.84297512 10.57050792 -9.875 10.25 C-7.93393971 8.63442803 -7.93393971 8.63442803 -6.875 6.25 C-6.33875 5.363125 -5.8025 4.47625 -5.25 3.5625 C-4.79625 2.799375 -4.3425 2.03625 -3.875 1.25 C-2.875 0.25 -2.875 0.25 0 0 Z " fill="#302C49" transform="translate(213.875,357.75)"/>
<path d="M0 0 C3.125 0.25 3.125 0.25 4.8125 1.50390625 C6.46417561 3.70122469 6.49029744 4.72213898 6.25 7.4375 C5.39559038 13.13046842 2.41335202 16.58165068 -1.875 20.25 C-7.53148469 23.73091366 -13.39128021 24.23322503 -19.875 23.25 C-23.04544394 22.06677212 -25.49808482 20.67104888 -27.875 18.25 C-29.0625 15.125 -29.0625 15.125 -28.875 12.25 C-27.875 10.375 -27.875 10.375 -25.875 9.25 C-22.25 9 -22.25 9 -18.875 9.25 C-18.545 9.58 -18.215 9.91 -17.875 10.25 C-12.72743219 10.77287886 -12.72743219 10.77287886 -8.0625 9.125 C-6.45933202 6.59368214 -5.16689609 3.95123728 -3.875 1.25 C-2.875 0.25 -2.875 0.25 0 0 Z " fill="#2F2B49" transform="translate(158.875,373.75)"/>
<path d="M0 0 C1.48117801 0.28127421 2.95993249 0.57533732 4.4375 0.875 C5.26121094 1.03742188 6.08492188 1.19984375 6.93359375 1.3671875 C7.95646484 1.68042969 7.95646484 1.68042969 9 2 C9.495 2.99 9.495 2.99 10 4 C5.14192647 16.73285402 -1.7150847 24.34149356 -14 30 C-18.14359957 31.71998473 -21.50725891 32.49919345 -26 32 C-27.875 30.5 -27.875 30.5 -29 29 C-28.505 27.515 -28.505 27.515 -28 26 C-25.59375 24.89453125 -25.59375 24.89453125 -22.5 23.8125 C-10.5008784 18.98723046 -5.33852923 11.26069189 0 0 Z " fill="#67C7B6" transform="translate(408,430)"/>
<path d="M0 0 C5.363709 0.7068872 8.02343757 3.20818325 12.0078125 6.69921875 C12.69746094 7.27736328 13.38710938 7.85550781 14.09765625 8.45117188 C16.05555041 10.10770757 17.97598844 11.79679262 19.8828125 13.51171875 C20.41302002 13.98343506 20.94322754 14.45515137 21.48950195 14.94116211 C22.87890625 16.23828125 22.87890625 16.23828125 24.8828125 18.51171875 C24.8091909 22.26642026 24.55440089 23.84013036 21.8828125 26.51171875 C18.67053317 27.19105275 16.67352978 27.00414607 13.86621094 25.25585938 C11.59478273 23.49366905 9.42130302 21.65477296 7.2578125 19.76171875 C6.50757813 19.1275 5.75734375 18.49328125 4.984375 17.83984375 C-5.01948312 9.32592195 -5.01948312 9.32592195 -5.4921875 5.38671875 C-4.95771542 1.28909944 -4.04581339 0.66416235 0 0 Z " fill="#302F4B" transform="translate(294.1171875,65.48828125)"/>
<path d="M0 0 C2.23433399 1.81217872 2.91347169 2.57817449 3.5 5.4375 C3 8 3 8 1.125 9.98828125 C-3.1929857 12.76798454 -7.5230664 13.66150971 -12.5 14.75 C-13.43714844 14.97042969 -14.37429688 15.19085938 -15.33984375 15.41796875 C-26.39284012 17.9421282 -26.39284012 17.9421282 -29.8125 15.9375 C-31.71096021 12.84001228 -31.50468055 10.53276383 -31 7 C-27.03065399 3.88452494 -22.57371496 2.89886975 -17.75 1.8125 C-16.99509277 1.64032959 -16.24018555 1.46815918 -15.46240234 1.29077148 C-10.18939313 0.14202093 -5.40398783 -0.65220543 0 0 Z " fill="#31304C" transform="translate(371,86)"/>
<path d="M0 0 C2.33294775 -0.04241723 4.66702567 -0.04092937 7 0 C8.81626995 1.81626995 8.25818638 4.48766972 8.3125 6.9375 C8.22150706 15.2451551 6.46561784 21.70160956 0.75 27.875 C-4.43497316 32.58255593 -9.99372462 35.29937246 -17 36 C-17.66 34.68 -18.32 33.36 -19 32 C-18.12988281 31.48953125 -18.12988281 31.48953125 -17.2421875 30.96875 C-9.22241554 25.99278588 -4.22940806 20.4569425 -1.5234375 11.3203125 C-0.67473522 7.55815461 -0.30502868 3.84336134 0 0 Z " fill="#67C7B6" transform="translate(42,298)"/>
<path d="M0 0 C3.3 0 6.6 0 10 0 C10.32826598 14.00601515 9.17302736 27.90032555 -0.72265625 38.91796875 C-1.35494141 39.45357422 -1.35494141 39.45357422 -2 40 C-2.99 39.67 -3.98 39.34 -5 39 C-4.72285156 37.94425781 -4.44570313 36.88851562 -4.16015625 35.80078125 C-1.18199458 23.84168619 -0.242638 12.30174667 0 0 Z " fill="#F1DDD4" transform="translate(434,116)"/>
<path d="M0 0 C2.27837309 2.27837309 3.93159466 4.22280476 5.75 6.8125 C10.69973741 13.47749295 16.62176659 18.71390071 24.875 20.6875 C25.57625 20.790625 26.2775 20.89375 27 21 C26.34 22.32 25.68 23.64 25 25 C16.0614607 25.72084994 10.24650891 23.38996876 3.25 17.8046875 C-0.56784385 14.44187737 -4.05977633 11.16925607 -7 7 C-4.69 4.69 -2.38 2.38 0 0 Z " fill="#F5B25B" transform="translate(466,187)"/>
<path d="M0 0 C0.33 0 0.66 0 1 0 C1.08636719 0.67804687 1.17273437 1.35609375 1.26171875 2.0546875 C2.97986447 13.43543252 6.71474261 21.04181704 16 28 C15.67 29.32 15.34 30.64 15 32 C9.05836303 31.43412981 5.4364413 29.52544372 1.2890625 25.2265625 C-3.28825769 19.4458154 -3.62330691 14.37239853 -3.50390625 7.13671875 C-2.97626632 3.85226245 -2.28771836 2.36963155 0 0 Z " fill="#F58894" transform="translate(40,22)"/>
<path d="M0 0 C0.99 0 1.98 0 3 0 C3.01417969 0.75023437 3.02835938 1.50046875 3.04296875 2.2734375 C3.52377025 12.59117775 6.35554332 20.01078246 14 27 C14 27.66 14 28.32 14 29 C10.99217453 29.36301342 8.91573907 29.60722753 6 29 C2.53689229 26.25314271 0.39118619 23.17355857 -1 19 C-1.09644305 16.32228714 -1.1392892 13.67684323 -1.125 11 C-1.12886719 10.27554687 -1.13273437 9.55109375 -1.13671875 8.8046875 C-1.13081927 5.60717121 -1.01805798 3.05417393 0 0 Z " fill="#49CDD9" transform="translate(40,375)"/>
</svg>
