<?xml version="1.0" encoding="UTF-8"?>
<svg version="1.1" xmlns="http://www.w3.org/2000/svg" width="512" height="512">
<path d="M0 0 C1.26674561 0.00829834 2.53349121 0.01659668 3.83862305 0.02514648 C32.39637594 0.53833498 56.31346173 13.41263094 76.1328125 33.625 C81.04364888 39.03142537 85.14788894 44.55989301 87.6875 51.4375 C88.3475 51.1075 89.0075 50.7775 89.6875 50.4375 C131.43378384 44.42466076 175.94065236 54.95915955 209.83837891 80.16992188 C216.0794505 84.93096268 221.98579597 90.04448695 227.6875 95.4375 C228.55890625 96.24445313 229.4303125 97.05140625 230.328125 97.8828125 C242.61321079 109.64139461 251.96256455 123.34772177 259.6875 138.4375 C260.00557617 139.05447754 260.32365234 139.67145508 260.65136719 140.30712891 C270.6713783 160.00686863 276.1648454 180.9422174 277.21020508 203.02270508 C277.42067549 213.72077535 277.42067549 213.72077535 282.25 222.875 C284.03441173 224.42869401 285.85284605 225.94346682 287.6875 227.4375 C289.90873192 229.53470914 292.08343549 231.67255239 294.24975586 233.82641602 C295.76232899 235.32972817 297.29004954 236.81798996 298.83422852 238.28881836 C303.84554141 243.16066039 306.88589864 247.00865247 308.15625 254.02734375 C308.24075447 260.37574243 307.02893102 264.69944441 302.6875 269.4375 C299.09015116 272.42773959 295.27325125 274.30910722 290.77587891 275.52050781 C285.79679857 277.14828889 281.75379286 279.05192598 278.6875 283.4375 C275.96642451 292.99525025 276.94208374 303.63988595 277.3001709 313.48754883 C277.47231981 318.69245568 277.51599552 323.90029911 277.5761261 329.10746765 C277.60850263 331.87305929 277.67426741 334.63440761 277.76945496 337.39851379 C278.13283208 351.90435643 275.25342035 362.42239867 265.4375 373.1875 C256.77457228 381.42971158 245.74243896 383.72476262 234.18359375 383.7109375 C232.37304057 383.73121518 230.56249372 383.75206574 228.75195312 383.7734375 C225.93231796 383.79605161 223.11293471 383.81252496 220.29321289 383.81835938 C217.54789167 383.82791081 214.80366736 383.8616991 212.05859375 383.8984375 C211.22299423 383.89339203 210.38739471 383.88834656 209.526474 383.88314819 C203.77317706 383.97919266 200.43133189 385.14385506 195.6875 388.4375 C191.68013428 392.76123669 190.56703725 395.88462222 190.5456543 401.69995117 C190.53861984 402.7750444 190.53158539 403.85013763 190.52433777 404.95780945 C190.51809135 406.7015258 190.51809135 406.7015258 190.51171875 408.48046875 C190.48851535 410.94076372 190.46439781 413.4010502 190.43945312 415.86132812 C190.40437716 419.7410241 190.37501591 423.62040909 190.36157227 427.50024414 C190.34605964 431.24403633 190.30582065 434.98691822 190.26171875 438.73046875 C190.26362717 439.88282516 190.26553558 441.03518158 190.26750183 442.22245789 C190.15052777 449.96014029 189.14796435 455.5156404 183.87109375 461.49609375 C183.29488281 461.95113281 182.71867187 462.40617187 182.125 462.875 C181.54621094 463.34808594 180.96742188 463.82117188 180.37109375 464.30859375 C177.30914699 466.36173206 174.61066534 466.56795266 171.03681946 466.59571838 C169.60443436 466.61040161 169.60443436 466.61040161 168.14311218 466.62538147 C167.09726456 466.63113693 166.05141693 466.6368924 164.97387695 466.64282227 C163.8712854 466.65272186 162.76869385 466.66262146 161.63269043 466.67282104 C157.98040937 466.70446278 154.3281153 466.72920414 150.67578125 466.75390625 C148.14657753 466.77447346 145.61737727 466.79546987 143.08818054 466.81687927 C137.10654566 466.86647435 131.1248931 466.91173345 125.14320964 466.95490164 C118.33308088 467.00428973 111.52300019 467.05920202 104.71291792 467.11458123 C90.70449014 467.22837305 76.69601621 467.33521819 62.6875 467.4375 C62.23149414 468.38069092 61.77548828 469.32388184 61.30566406 470.2956543 C60.68844543 471.55532007 60.07091576 472.81483347 59.453125 474.07421875 C59.15486816 474.69325073 58.85661133 475.31228271 58.54931641 475.95007324 C49.88524361 493.52658893 34.38947555 503.42763894 16.83984375 510.6015625 C-0.48719451 516.06251418 -21.20726013 513.55261994 -37.265625 505.5234375 C-54.03964368 496.50648226 -66.53913333 481.67320002 -72.3125 463.4375 C-72.94105416 460.30494958 -72.88981972 458.67049044 -72.3125 455.4375 C-69.73877616 452.40958959 -68.16003406 451.57587291 -64.25 450.9375 C-60.54169998 451.5687 -59.70401718 452.57236864 -57.3125 455.4375 C-56.29373267 457.63071759 -55.36244739 459.86573579 -54.5 462.125 C-48.74472236 476.29508008 -38.45379495 486.1416164 -24.48828125 492.24609375 C-11.78874517 497.01037235 2.93366368 497.43310648 15.7890625 492.7734375 C20.77457336 490.47553357 25.24757378 487.65185981 29.6875 484.4375 C30.76 483.674375 31.8325 482.91125 32.9375 482.125 C43.99502516 471.31878223 49.62740214 457.38598728 50 442.125 C49.75058822 428.22722121 45.28050929 414.47529127 35.59765625 404.12109375 C22.91705268 392.94452905 8.42557561 386.82657075 -8.73828125 387.58984375 C-23.7534971 389.47798467 -37.66422391 396.70204582 -47.3125 408.4375 C-51.58764381 414.75424309 -54.91648627 421.2642147 -57.390625 428.4765625 C-58.3125 430.4375 -58.3125 430.4375 -61.3125 432.4375 C-64.99972891 432.9184429 -66.87324794 432.66667499 -70.1875 430.9375 C-72.55270723 428.15490326 -73.04271544 426.47023301 -72.79296875 422.83203125 C-69.53638957 406.60208784 -58.13448996 392.74351224 -45.140625 383.078125 C-34.93827429 376.45903893 -23.12443711 371.27095287 -10.79296875 371.33984375 C-9.77138672 371.34306641 -8.74980469 371.34628906 -7.69726562 371.34960938 C-6.64216797 371.35798828 -5.58707031 371.36636719 -4.5 371.375 C-3.42556641 371.37951172 -2.35113281 371.38402344 -1.24414062 371.38867188 C1.39976357 371.40042256 4.043639 371.418357 6.6875 371.4375 C6.6875 366.4875 6.6875 361.5375 6.6875 356.4375 C5.0375 356.7675 3.3875 357.0975 1.6875 357.4375 C-18.66134667 359.03589883 -37.39992192 351.6034005 -52.9375 338.8125 C-66.71877166 326.01736585 -74.21825799 308.19456935 -75.59375 289.64453125 C-76.02579988 272.27252567 -71.07983199 255.23549712 -60.3125 241.4375 C-59.57829834 240.83824707 -58.84409668 240.23899414 -58.08764648 239.62158203 C-54.287364 236.41524554 -51.65933167 234.09486861 -50.61669922 229.11254883 C-50.49824215 225.26936059 -50.62519583 221.52418689 -50.875 217.6875 C-50.99040003 215.10980044 -51.09595411 212.53164028 -51.19140625 209.953125 C-51.23797363 208.70724609 -51.28454102 207.46136719 -51.33251953 206.17773438 C-51.30205437 200.48595077 -50.40643659 195.01156396 -49.3125 189.4375 C-50.46782227 188.99531128 -50.46782227 188.99531128 -51.64648438 188.54418945 C-71.65680574 180.23770715 -86.01947974 158.41079017 -94.3125 139.4375 C-97.51467254 131.64641664 -100.42970674 123.95620139 -99.3125 115.4375 C-97.87932817 112.42029614 -97.05134613 111.70970647 -93.9375 110.5625 C-90.74117421 110.41029401 -89.0843713 110.83273241 -86.3125 112.4375 C-83.56446768 116.30325531 -82.32447579 120.36459494 -81.0625 124.875 C-77.3954701 137.15495754 -71.98507378 147.8802921 -63.3125 157.4375 C-62.57386719 158.26894531 -61.83523437 159.10039062 -61.07421875 159.95703125 C-46.41963032 175.57100354 -26.00947274 184.67170755 -4.63671875 185.71875 C19.85518434 186.42434889 41.5699813 177.92836841 59.6875 161.4375 C75.75417427 146.13034124 83.91156997 124.34260155 84.6875 102.4375 C84.86741751 78.66268566 75.18383268 57.48751456 59.0625 40.3125 C42.90721713 24.75007155 21.02661291 16.48443091 -1.3125 16.4375 C-24.96337085 17.21732694 -46.52898665 26.74469684 -62.87841797 43.84619141 C-72.96865204 55.04267518 -78.83723464 68.3556171 -82.57714844 82.79003906 C-84.38305877 89.54408067 -84.38305877 89.54408067 -87.3125 91.4375 C-91.63194059 91.91743784 -94.04885524 92.16409573 -97.8125 90 C-100.79995759 84.89642662 -99.75449446 80.2661054 -98.4296875 74.78515625 C-91.08039484 48.65112298 -74.09792527 26.14240977 -50.4375 12.625 C-34.64376572 3.93403972 -18.02057968 -0.15377368 0 0 Z M95.6875 66.4375 C95.80867188 67.04335937 95.92984375 67.64921875 96.0546875 68.2734375 C96.41030692 70.05153459 96.76291976 71.83023441 97.11328125 73.609375 C97.46321116 75.33283932 97.83103757 77.05295604 98.23046875 78.765625 C100.65000162 89.46250715 100.77274087 100.51246153 100.6875 111.4375 C101.27950195 111.41655273 101.87150391 111.39560547 102.48144531 111.37402344 C131.51337733 110.49019969 157.85023727 116.35719232 180.0625 136 C181.61184567 137.47112138 183.15406617 138.94980016 184.6875 140.4375 C185.36039063 141.03691406 186.03328125 141.63632813 186.7265625 142.25390625 C201.79843503 156.15485641 209.63201001 175.77055393 213.6875 195.4375 C213.97947266 196.80261719 213.97947266 196.80261719 214.27734375 198.1953125 C214.88840073 203.02557245 214.87187005 207.82356415 214.875 212.6875 C214.88724609 213.67363281 214.89949219 214.65976563 214.91210938 215.67578125 C214.93799547 228.77414321 214.93799547 228.77414321 212.6875 234.4375 C210.83666992 236.22753906 210.83666992 236.22753906 208.6875 237.4375 C202.36022727 237.11022727 202.36022727 237.11022727 199.6875 234.4375 C199.52392578 231.65039062 199.52392578 231.65039062 199.6328125 228.09375 C199.67438477 226.14299561 199.67438477 226.14299561 199.71679688 224.15283203 C199.73347412 223.46433167 199.75015137 222.7758313 199.76733398 222.06646729 C200.37044797 193.63779312 193.35373047 171.79728319 173.5 150.75 C156.21496233 134.01943356 133.88819597 125.94466813 110.05615234 126.14501953 C108.58969668 126.18019925 107.12354613 126.23866801 105.65917969 126.32446289 C103.90042121 126.42529315 102.13660233 126.42652667 100.375 126.4140625 C97.63792466 127.15365529 97.63792466 127.15365529 96.60253906 129.10961914 C95.57185411 131.41558052 94.73674301 133.72914714 93.9375 136.125 C93.64746094 136.92873047 93.35742188 137.73246094 93.05859375 138.56054688 C92.24063641 140.84447797 91.45697837 143.13684262 90.6875 145.4375 C90.29046875 146.61957031 89.8934375 147.80164063 89.484375 149.01953125 C89.22140625 149.81746094 88.9584375 150.61539063 88.6875 151.4375 C90.01496548 152.98169454 91.37575853 154.49728187 92.75 156 C93.50410156 156.84691406 94.25820313 157.69382812 95.03515625 158.56640625 C97.60168947 160.79145385 97.60168947 160.79145385 101.015625 160.23046875 C102.22734375 159.96878906 103.4390625 159.70710938 104.6875 159.4375 C122.61955567 158.46920624 137.16108463 161.98896256 151.07421875 173.85546875 C160.91485032 183.5784246 166.67263566 196.49236187 166.92944336 210.31152344 C166.98431742 225.21731507 163.48977295 237.55916526 154.4375 249.75 C142.65959614 261.26022423 129.19103282 267.31851286 112.8125 267.75 C97.89588756 267.47556016 84.72550624 262.21683292 73.9375 251.84375 C63.87878416 241.08651223 58.52989653 228.25307 58.5625 213.5 C58.55863281 211.75396484 58.55863281 211.75396484 58.5546875 209.97265625 C58.6875 206.4375 58.6875 206.4375 59.50390625 202.8359375 C60.05324273 199.30511056 60.05324273 199.30511056 57.59765625 196.56640625 C56.65792969 195.71949219 55.71820313 194.87257812 54.75 194 C53.34427734 192.70255859 53.34427734 192.70255859 51.91015625 191.37890625 C51.17667969 190.73824219 50.44320312 190.09757812 49.6875 189.4375 C49.13288086 189.67460693 48.57826172 189.91171387 48.00683594 190.15600586 C45.48502161 191.2320749 42.96129229 192.30357874 40.4375 193.375 C39.56480469 193.74818359 38.69210938 194.12136719 37.79296875 194.50585938 C36.94863281 194.86357422 36.10429687 195.22128906 35.234375 195.58984375 C34.07180176 196.0847229 34.07180176 196.0847229 32.88574219 196.58959961 C30.83245602 197.38158793 28.83253641 197.95678965 26.6875 198.4375 C26.44767578 200.08843283 26.2097084 201.73965405 25.98046875 203.39208984 C25.69932294 205.35495616 25.38169097 207.31249159 25.0625 209.26953125 C24.441781 215.44311163 24.441781 215.44311163 25.6875 221.4375 C29.11280084 225.47423184 34.17023148 227.71683967 38.72949219 230.25 C51.99042524 238.29254094 60.43834353 253.82653367 64.30126953 268.40478516 C64.71748254 270.59529685 64.82817798 272.65847414 64.87109375 274.88671875 C64.76101643 282.44462956 64.76101643 282.44462956 68.08886719 288.89746094 C72.51718595 292.0683253 77.52922012 293.81801363 82.6875 295.4375 C83.38327148 295.66211914 84.07904297 295.88673828 84.79589844 296.11816406 C109.15174534 303.75487049 132.79630267 301.26219975 155.375 289.625 C169.17585326 281.76451401 179.70636326 270.3581432 188.6875 257.4375 C189.6875 256.4375 189.6875 256.4375 191.97265625 256.33984375 C193.34744141 256.35724609 193.34744141 256.35724609 194.75 256.375 C195.66910156 256.38402344 196.58820313 256.39304687 197.53515625 256.40234375 C198.24542969 256.41394531 198.95570313 256.42554688 199.6875 256.4375 C201.27146057 261.1893817 201.42721335 264.91697812 199.2109375 269.47265625 C181.98755268 293.74197122 159.13270834 309.28220861 129.6875 314.4375 C108.82571005 317.72524823 89.01863406 314.51651878 69.6875 306.4375 C68.02159528 305.76893162 66.35525983 305.10142724 64.6875 304.4375 C64.40777344 305.16453125 64.12804687 305.8915625 63.83984375 306.640625 C55.25917933 328.16126246 43.34235616 341.11007192 22.6875 351.4375 C22.6875 359.6875 22.6875 367.9375 22.6875 376.4375 C25.5646875 377.8915625 25.5646875 377.8915625 28.5 379.375 C45.30162556 388.26324642 57.15808012 402.12000768 62.9765625 420.2578125 C65.04306607 427.48306172 65.96607338 434.47168908 66.2890625 441.953125 C66.32942627 442.77441895 66.36979004 443.59571289 66.41137695 444.44189453 C66.50881851 446.44017366 66.59893679 448.43880771 66.6875 450.4375 C80.34324395 450.48376079 93.99896938 450.51933729 107.65477562 450.54112434 C113.9951389 450.55157896 120.33544874 450.56576869 126.67578125 450.58837891 C132.79007114 450.61004755 138.90430949 450.62205597 145.0186348 450.62725449 C147.35592079 450.63096102 149.69320383 450.63819852 152.03046799 450.64896011 C155.29430067 450.66339556 158.55791808 450.66548128 161.82177734 450.66455078 C162.79641434 450.67174133 163.77105133 450.67893188 164.77522278 450.68634033 C165.66145828 450.683591 166.54769379 450.68084167 167.46078491 450.67800903 C168.23324743 450.67985262 169.00570995 450.68169621 169.80158043 450.68359566 C171.93079948 450.60064511 171.93079948 450.60064511 173.6875 448.4375 C173.99104129 446.130228 173.99104129 446.130228 173.94287109 443.42797852 C173.94983002 442.38251358 173.95678894 441.33704865 173.96395874 440.25990295 C173.96246323 438.55537209 173.96246323 438.55537209 173.9609375 436.81640625 C173.98124513 434.41210488 174.00209624 432.00780805 174.0234375 429.60351562 C174.04594408 425.81189158 174.06246823 422.0204473 174.06835938 418.22875977 C174.07794632 414.57014328 174.11182175 410.91233874 174.1484375 407.25390625 C174.14339203 406.13577042 174.13834656 405.01763458 174.13314819 403.86561584 C174.26609941 393.10146338 176.87516205 384.24421269 184.3984375 376.3828125 C190.20928999 371.4445795 197.19779691 368.33317075 204.85424805 368.2956543 C205.66576828 368.28861984 206.47728851 368.28158539 207.31340027 368.27433777 C208.18322037 368.27017349 209.05304047 368.26600922 209.94921875 368.26171875 C211.80925599 368.23851135 213.66928206 368.21439365 215.52929688 368.18945312 C218.44758496 368.15444052 221.3654636 368.12504402 224.28393555 368.11157227 C227.11036323 368.09598843 229.93560821 368.05570789 232.76171875 368.01171875 C233.62141769 368.01362717 234.48111664 368.01553558 235.36686707 368.01750183 C242.42706034 367.87676465 248.44036469 366.05722273 253.9921875 361.578125 C254.51039063 360.95421875 255.02859375 360.3303125 255.5625 359.6875 C256.09617187 359.07390625 256.62984375 358.4603125 257.1796875 357.828125 C262.0580271 350.09355548 262.1065252 342.70237507 262.06762505 333.81133652 C262.05843583 331.51522929 262.06882456 329.21992495 262.08424377 326.92385864 C262.12414007 320.4018867 262.12554311 313.87998396 262.12329102 307.35791016 C262.12323983 303.3544192 262.14244115 299.35136649 262.17262459 295.34799576 C262.18340922 293.09326663 262.17134857 290.83938755 262.15879822 288.58468628 C262.16770523 287.19560924 262.17778052 285.80653905 262.18920898 284.41748047 C262.18904282 283.2113913 262.18887665 282.00530212 262.18870544 280.76266479 C262.79109751 276.74687743 264.17364552 274.59102574 266.6875 271.4375 C269.32885742 269.62646484 269.32885742 269.62646484 272.29296875 268.1484375 C273.89108398 267.32472656 273.89108398 267.32472656 275.52148438 266.484375 C276.62814453 265.93265625 277.73480469 265.3809375 278.875 264.8125 C281.08311712 263.70780509 283.28531319 262.59116939 285.48046875 261.4609375 C286.94262817 260.73269775 286.94262817 260.73269775 288.43432617 259.98974609 C290.74304107 258.61873849 290.74304107 258.61873849 291.83984375 256.59936523 C291.58715024 253.01346613 288.94978196 251.15423437 286.45703125 248.82421875 C285.91020187 248.29157913 285.3633725 247.75893951 284.79997253 247.2101593 C283.04472033 245.50282345 281.2739499 243.81288484 279.5 242.125 C277.74554065 240.44632828 275.99511412 238.76406326 274.25358582 237.07197571 C273.16962093 236.01965496 272.07814096 234.97499923 270.97798157 233.93962097 C265.73952821 228.87144971 262.27923731 223.8696331 262 216.33203125 C261.94368408 215.19378906 261.88736816 214.05554688 261.8293457 212.8828125 C261.75913208 211.08457031 261.75913208 211.08457031 261.6875 209.25 C259.51731088 170.9636076 245.79102236 137.44098178 219.01708984 109.81835938 C217.88421454 108.64179993 216.77712223 107.44050377 215.67578125 106.234375 C205.909252 95.81109432 193.25003903 88.01254827 180.6875 81.4375 C179.52992188 80.83164063 178.37234375 80.22578125 177.1796875 79.6015625 C153.55708169 67.70658279 121.8879077 60.51496164 95.6875 66.4375 Z M78.6875 164.4375 C76.38378052 166.89353151 74.13788647 169.39213164 71.90039062 171.90820312 C69.33779041 174.7536206 66.88150139 177.27529003 63.6875 179.4375 C65.3476527 183.71311947 68.54932104 186.60210796 71.72607422 189.7824707 C72.34416962 190.40888962 72.96226501 191.03530853 73.59909058 191.68070984 C75.64134803 193.74704037 77.69116591 195.80565185 79.7421875 197.86328125 C81.16472013 199.29477845 82.58717389 200.72635402 84.009552 202.15800476 C86.99011405 205.15504936 89.97503591 208.14767814 92.96240234 211.13793945 C96.79677345 214.97770993 100.61470878 218.8333937 104.42890739 222.69318867 C107.3595159 225.65346881 110.3012436 228.60250203 113.24621964 231.54848289 C114.65935976 232.96584084 116.06836062 234.38733789 117.47317123 235.81295204 C119.43392829 237.80043152 121.40971626 239.77164301 123.39013672 241.73950195 C124.26152283 242.6331395 124.26152283 242.6331395 125.1505127 243.54483032 C126.92800112 245.34865495 126.92800112 245.34865495 129.6875 247.4375 C134.94555957 246.8278315 139.15858099 243.24410014 142.47265625 239.328125 C143.92441903 237.3924413 145.33058568 235.44056399 146.6875 233.4375 C145.02514449 229.10829338 141.73494177 226.21176447 138.50952148 223.01660156 C137.87685364 222.38203537 137.24418579 221.74746918 136.59234619 221.09367371 C134.50261492 219.00024142 132.40577735 216.91408949 130.30859375 214.828125 C128.85616732 213.37689055 127.40411021 211.92528638 125.95240784 210.47332764 C122.91154164 207.43402498 119.8673457 204.39811105 116.82055664 201.36474609 C112.90547511 197.46669198 108.9970467 193.56204935 105.09084988 189.65509415 C102.09470496 186.65922039 99.09596676 183.66595418 96.09633064 180.67357635 C94.65355187 179.23399005 93.21138704 177.79378817 91.76983452 176.35297394 C89.76109198 174.34638671 87.74909943 172.34311968 85.73608398 170.34082031 C85.13502335 169.73930649 84.53396271 169.13779266 83.91468811 168.51805115 C81.6643811 165.73134646 81.6643811 165.73134646 78.6875 164.4375 Z M112.6875 174.4375 C116.98900522 179.57562825 121.49412025 184.3913552 126.23828125 189.12109375 C126.93769333 189.82146255 127.63710541 190.52183136 128.35771179 191.24342346 C129.82294009 192.70932762 131.28941334 194.17398839 132.75708008 195.63745117 C135.01435682 197.88932244 137.26618445 200.1465454 139.51757812 202.40429688 C140.94499154 203.83105035 142.37271465 205.25749406 143.80078125 206.68359375 C144.47675858 207.36159531 145.1527359 208.03959686 145.84919739 208.73814392 C146.47041977 209.35621414 147.09164215 209.97428436 147.73168945 210.61108398 C148.27984818 211.15844711 148.8280069 211.70581024 149.39277649 212.26976013 C150.5206743 213.54912549 150.5206743 213.54912549 151.6875 213.4375 C152.47135397 204.61914289 148.98984 196.39682125 143.6875 189.4375 C143.130625 188.6125 142.57375 187.7875 142 186.9375 C135.7778618 180.21086411 126.62139059 175.18256277 117.43359375 174.1953125 C115.35040823 174.15706504 115.35040823 174.15706504 112.6875 174.4375 Z M-34.3125 196.4375 C-35.2927248 202.12589118 -35.43198801 207.61044333 -35.375 213.375 C-35.37048828 214.24962891 -35.36597656 215.12425781 -35.36132812 216.02539062 C-35.34964834 218.16279047 -35.33171689 220.30015463 -35.3125 222.4375 C-34.29929687 222.08816406 -33.28609375 221.73882812 -32.2421875 221.37890625 C-30.89070771 220.91902771 -29.53914053 220.45940591 -28.1875 220 C-27.52234375 219.76990234 -26.8571875 219.53980469 -26.171875 219.30273438 C-25.18574219 218.96918945 -25.18574219 218.96918945 -24.1796875 218.62890625 C-23.28419189 218.32255249 -23.28419189 218.32255249 -22.37060547 218.01000977 C-17.74377888 216.72295065 -13.2641287 216.31410415 -8.4765625 216.33984375 C-7.41308594 216.34306641 -6.34960938 216.34628906 -5.25390625 216.34960938 C-3.61228516 216.36217773 -3.61228516 216.36217773 -1.9375 216.375 C-0.81988281 216.37951172 0.29773438 216.38402344 1.44921875 216.38867188 C4.19533566 216.40040742 6.94142485 216.41834134 9.6875 216.4375 C10.0175 211.8175 10.3475 207.1975 10.6875 202.4375 C9.285 202.40011719 7.8825 202.36273438 6.4375 202.32421875 C-7.65612346 201.86693294 -20.74931468 200.4388995 -34.3125 196.4375 Z M73.6875 214.4375 C74.4330673 226.180185 79.15383436 235.5413801 87.6328125 243.765625 C94.18290379 249.09535708 103.15970937 252.9543358 111.6875 252.4375 C107.45026022 247.38056941 103.02658375 242.62908853 98.35546875 237.97265625 C97.67825272 237.29448349 97.00103668 236.61631073 96.30329895 235.91758728 C94.88514898 234.49876167 93.46575494 233.08117853 92.04516602 231.66479492 C89.86031614 229.48535248 87.68091969 227.30055718 85.50195312 225.11523438 C84.12011264 223.7340538 82.73796246 222.35318298 81.35546875 220.97265625 C80.7013652 220.31652847 80.04726166 219.6604007 79.37333679 218.98439026 C76.91019755 215.91242798 76.91019755 215.91242798 73.6875 214.4375 Z M-47.08984375 251.44140625 C-56.32221199 263.06996167 -60.92406137 277.60381009 -59.3125 292.4375 C-57.49966555 302.559159 -54.12151713 310.96815865 -48.3125 319.4375 C-47.87421875 320.09105469 -47.4359375 320.74460937 -46.984375 321.41796875 C-38.80456534 332.1847664 -24.84053584 338.84509373 -11.8125 341.125 C3.99484103 343.10091763 18.61531074 338.26259848 31.15234375 328.59375 C41.53271466 319.76483668 48.59430401 308.02583065 50.6875 294.4375 C51.82601994 278.95679143 49.3407899 265.26714918 39.61328125 252.7734375 C29.91081466 241.56395603 17.81386675 232.74561518 2.63208008 231.23266602 C0.54164544 231.13520003 -1.53240589 231.1081611 -3.625 231.125 C-4.73911255 231.13345947 -4.73911255 231.13345947 -5.87573242 231.14208984 C-22.39144248 231.50420571 -36.23658509 239.20465527 -47.08984375 251.44140625 Z " fill="white" transform="translate(171.3125,-0.4375)"/>
<path d="M0 0 C14.63465995 11.52641359 25.12908309 28.13401881 27.77734375 46.74609375 C29.63153893 66.80005019 26.04280889 86.05478829 13.234375 102.03515625 C0.15567927 117.38611989 -16.21931254 126.20835611 -36.22265625 128.74609375 C-56.55861491 130.21195805 -75.79870802 123.77518439 -91.41015625 110.62109375 C-105.07040906 97.70754286 -113.30723784 79.6877704 -114.3828125 60.95703125 C-114.99184974 39.19056978 -107.08407543 21.16653308 -92.34765625 5.43359375 C-67.18172898 -18.58616258 -27.88120653 -19.49994687 0 0 Z M-85.22265625 21.74609375 C-92.01328613 30.42594556 -97.59220576 41.60813502 -98.22265625 52.74609375 C-98.28453125 53.431875 -98.34640625 54.11765625 -98.41015625 54.82421875 C-99.10351696 67.91140218 -94.54340379 80.11757725 -87.22265625 90.74609375 C-86.50078125 91.79796875 -85.77890625 92.84984375 -85.03515625 93.93359375 C-73.36472575 105.60402425 -59.45496081 112.4847855 -42.91015625 113.05859375 C-27.64601221 112.67215972 -14.40749497 106.66047278 -3.4375 96.1171875 C8.00641593 83.86594064 12.33058707 69.66463411 12.05859375 53.18359375 C11.428189 38.50777119 3.93407544 26.78627278 -6.22265625 16.74609375 C-17.86393893 6.07837029 -31.34137854 2.06849039 -46.828125 2.43359375 C-62.1824337 3.23836206 -74.87875061 10.72304279 -85.22265625 21.74609375 Z " fill="white" transform="translate(214.22265625,43.25390625)"/>
<path d="M0 0 C24.03740279 3.82367965 46.61515303 14.0212236 65 30 C65.83015625 30.70898438 66.6603125 31.41796875 67.515625 32.1484375 C92.41173047 53.91343768 109.35738572 85.81208599 112 119 C113.83269258 159.98665437 102.19116679 194.94023996 74.43603516 225.45751953 C64.76195557 235.84868492 46.70497458 251.99920292 31.84765625 253.26953125 C29 253 29 253 26.0625 251 C24.03736867 248.05435443 23.59828948 247.36451118 23.6875 244 C24.18755584 241.56791025 24.64086201 240.34263706 26.4453125 238.62109375 C28.57287255 237.27245213 30.75162433 236.13646446 33 235 C40.94355064 230.59781282 48.08047003 225.88571225 55 220 C55.68707031 219.44699219 56.37414062 218.89398438 57.08203125 218.32421875 C77.71547284 201.27212402 91.33001678 173.06887435 94.71484375 146.74609375 C97.16870104 114.50980417 90.18764059 83.43534734 69 58.31640625 C68.34 57.55199219 67.68 56.78757813 67 56 C66.0409375 54.80697266 66.0409375 54.80697266 65.0625 53.58984375 C48.78740992 34.13987815 23.54851163 21.32002046 -1.29296875 17.265625 C-2.01427979 17.14598389 -2.73559082 17.02634277 -3.47875977 16.90307617 C-4.87322392 16.6817956 -6.27101867 16.48027384 -7.67163086 16.30200195 C-11.1945562 15.75785371 -12.86813773 15.12684691 -15.46484375 12.62890625 C-17 10 -17 10 -16.9375 6.375 C-14.55871448 -2.18862788 -7.58243828 -0.88634895 0 0 Z " fill="white" transform="translate(305,81)"/>
<path d="M0 0 C0.70974976 -0.0038269 1.41949951 -0.00765381 2.15075684 -0.01159668 C3.64332508 -0.01430462 5.13594168 -0.00702191 6.62841797 0.00976562 C8.90050013 0.03119577 11.16942129 0.00993053 13.44140625 -0.015625 C14.89844441 -0.01298152 16.35548062 -0.00785611 17.8125 0 C19.78186523 0.00676758 19.78186523 0.00676758 21.79101562 0.01367188 C27.0263483 0.76319276 30.06239749 2.77716325 33.26489258 6.95727539 C33.77173584 7.83891357 34.2785791 8.72055176 34.80078125 9.62890625 C35.36345703 10.59505859 35.92613281 11.56121094 36.50585938 12.55664062 C37.07111328 13.55888672 37.63636719 14.56113281 38.21875 15.59375 C38.80333984 16.59986328 39.38792969 17.60597656 39.99023438 18.64257812 C43.82328351 25.2915637 46.65258666 30.61921163 45.40625 38.53125 C43.74230386 42.67884861 41.55912914 46.44351883 39.28125 50.28125 C38.71148437 51.29574219 38.14171875 52.31023437 37.5546875 53.35546875 C33.88845441 59.69638553 30.65046501 65.11651166 23.40625 67.53125 C19.31263053 67.7581195 15.21884294 67.75951952 11.11938477 67.77148438 C9.11136973 67.78116505 7.10349618 67.81236291 5.09570312 67.84375 C3.82017578 67.84890625 2.54464844 67.8540625 1.23046875 67.859375 C0.06604248 67.8687207 -1.09838379 67.87806641 -2.2980957 67.88769531 C-6.8814992 67.39197199 -10.2860601 65.94745034 -13.4296875 62.54296875 C-29.2410655 38.66538015 -29.2410655 38.66538015 -27.59375 29.53125 C-25.73711935 25.07474185 -23.38403221 20.95575185 -20.96875 16.78125 C-20.35128906 15.65847656 -19.73382813 14.53570312 -19.09765625 13.37890625 C-14.18719075 4.72614914 -10.55488467 0.03627108 0 0 Z M-1.59375 16.53125 C-3.099375 19.068125 -4.605 21.605 -6.15625 24.21875 C-6.63521729 25.00854248 -7.11418457 25.79833496 -7.60766602 26.61206055 C-9.94692276 30.6217914 -9.94692276 30.6217914 -10.62109375 35.12890625 C-9.23429322 38.37180484 -7.4951904 41.32271512 -5.59375 44.28125 C-5.22507812 44.87035156 -4.85640625 45.45945312 -4.4765625 46.06640625 C-2.73553563 48.95166328 -2.73553563 48.95166328 -0.59375 51.53125 C0.8949686 51.61794432 2.387695 51.63828494 3.87890625 51.62890625 C5.22758789 51.62407227 5.22758789 51.62407227 6.60351562 51.61914062 C7.54904297 51.61076172 8.49457031 51.60238281 9.46875 51.59375 C10.41814453 51.58923828 11.36753906 51.58472656 12.34570312 51.58007812 C14.69928065 51.5682511 17.05273477 51.55177025 19.40625 51.53125 C20.9452724 48.97821285 22.46220193 46.41585065 23.96875 43.84375 C24.40638672 43.12251953 24.84402344 42.40128906 25.29492188 41.65820312 C27.71307312 37.56705329 27.71307312 37.56705329 28.4375 32.96875 C26.99272634 29.55383043 25.24048878 26.40067798 23.34375 23.21875 C22.044375 21.011875 20.745 18.805 19.40625 16.53125 C12.47625 16.53125 5.54625 16.53125 -1.59375 16.53125 Z " fill="white" transform="translate(280.59375,363.46875)"/>
<path d="M0 0 C2.16227385 -0.0171609 4.32299711 -0.0610394 6.48486328 -0.10522461 C7.86896666 -0.11535674 9.253083 -0.12387122 10.63720703 -0.13061523 C11.89178711 -0.14519775 13.14636719 -0.15978027 14.43896484 -0.17480469 C19.21107731 0.4668771 22.34886025 2.4946672 25.51611328 6.09204102 C27.01866473 8.47704332 28.49090193 10.87350327 29.93408203 13.29516602 C30.31064941 13.90038086 30.6872168 14.5055957 31.07519531 15.12915039 C32.34283821 17.1713806 33.57848048 19.23043388 34.80908203 21.29516602 C35.21489502 21.94710937 35.62070801 22.59905273 36.03881836 23.27075195 C38.93431001 28.26499339 40.16848981 32.56040811 38.93408203 38.29516602 C37.22095621 42.43159671 35.04184229 46.2073522 32.74658203 50.04516602 C32.1684375 51.0596582 31.59029297 52.07415039 30.99462891 53.11938477 C23.91010969 65.3031568 23.91010969 65.3031568 17.93408203 67.29516602 C13.53781039 67.5231669 9.13922804 67.52344538 4.73779297 67.53540039 C2.57366418 67.54510065 0.41048784 67.57613369 -1.75341797 67.60766602 C-3.13622485 67.61419729 -4.5190385 67.61944727 -5.90185547 67.62329102 C-7.78203369 67.63730957 -7.78203369 67.63730957 -9.70019531 67.65161133 C-14.3005429 67.16441363 -16.85882576 65.58076828 -19.98779297 62.24829102 C-22.99429616 57.97589175 -25.67465694 53.5504749 -28.31591797 49.04516602 C-28.87021484 48.1415332 -29.42451172 47.23790039 -29.99560547 46.30688477 C-33.3143228 40.62582923 -35.69325678 35.90008647 -34.06591797 29.29516602 C-32.36253233 25.16314779 -30.21956144 21.38418491 -27.94091797 17.54516602 C-27.37115234 16.53067383 -26.80138672 15.51618164 -26.21435547 14.47094727 C-19.19149265 2.3245868 -13.66757636 0.07557112 0 0 Z M-8.06591797 16.29516602 C-9.57154297 18.83204102 -11.07716797 21.36891602 -12.62841797 23.98266602 C-13.10738525 24.7724585 -13.58635254 25.56225098 -14.07983398 26.37597656 C-16.41250432 30.37018146 -16.41250432 30.37018146 -17.09716797 34.85766602 C-15.65271404 38.27182985 -13.90044025 41.42630395 -12.00341797 44.60766602 C-11.62636719 45.2528418 -11.24931641 45.89801758 -10.86083984 46.56274414 C-9.93554304 48.14394753 -9.00159116 49.72008062 -8.06591797 51.29516602 C-1.19257494 52.3433366 6.20015928 53.43429887 12.93408203 51.29516602 C18.08239093 46.94829883 20.54108854 40.43567761 22.93408203 34.29516602 C22.10263672 32.84883789 22.10263672 32.84883789 21.25439453 31.37329102 C20.52256606 30.0972824 19.79079843 28.8212389 19.05908203 27.54516602 C18.69427734 26.91094727 18.32947266 26.27672852 17.95361328 25.62329102 C16.19104678 22.5468113 14.52062202 19.46824599 12.93408203 16.29516602 C6.00408203 16.29516602 -0.92591797 16.29516602 -8.06591797 16.29516602 Z " fill="white" transform="translate(67.06591796875,179.704833984375)"/>
<path d="M0 0 C3.51471396 0.66603027 6.99197298 1.4207771 10.47265625 2.24609375 C20.27626247 4.34143816 29.92693136 4.02906478 39.89306641 3.75317383 C41.96528479 3.69869185 44.03662009 3.66962342 46.109375 3.64453125 C47.33624023 3.61721924 48.56310547 3.58990723 49.82714844 3.56176758 C53.59590918 4.08230663 54.72412135 5.01777836 57 8 C57.78365057 10.76709719 57.64280663 13.20493904 57 16 C54.93749261 18.59476736 53.38540474 19.73607107 50.09692383 20.36254883 C33.87174198 22.02671751 17.96088134 21.31343726 2 18 C0.25783203 17.64035156 0.25783203 17.64035156 -1.51953125 17.2734375 C-8.41096946 15.6296082 -8.41096946 15.6296082 -10.7578125 13.12109375 C-12.60310032 9.97017775 -12.38345121 7.57887795 -12 4 C-9.8882794 -1.49047355 -5.03423864 -0.60467112 0 0 Z " fill="white" transform="translate(252,325)"/>
<path d="M0 0 C6.03035679 4.33705008 10.22638368 10.14722474 11.5078125 17.59375 C11.78449115 21.4745321 11.28187741 23.37342491 9.03125 26.55078125 C6.15625 28.55078125 6.15625 28.55078125 3.15625 29.17578125 C-0.93810103 28.32279145 -2.31573871 26.85124044 -4.84375 23.55078125 C-5.52630989 21.2220475 -6.19425775 18.88895334 -6.84375 16.55078125 C-9.30470343 13.72524213 -10.56955563 13.57036656 -14.34375 13.30078125 C-18.20495769 13.5138416 -18.20495769 13.5138416 -21.84375 14.55078125 C-22.80308301 16.47134092 -22.80308301 16.47134092 -23.28125 18.80078125 C-24.58845416 23.20732431 -26.00963496 25.7866518 -29.84375 28.55078125 C-33.86137368 29.38778618 -35.32123934 28.88429869 -38.78125 26.67578125 C-41.35206217 22.78061129 -41.33873546 20.75615046 -40.60546875 16.2421875 C-38.3289686 8.19855365 -34.03059862 2.96825066 -26.9921875 -1.390625 C-18.53805053 -5.55620885 -8.00679686 -4.61430663 0 0 Z " fill="white" transform="translate(181.84375,291.44921875)"/>
<path d="M0 0 C3.24668387 2.16445591 4.26548192 4.49684404 5.5 8.0625 C6.39593924 10.63533087 6.95261154 11.94770929 8.8125 14 C12.38851988 15.63475195 15.43421236 15.40263111 19.1875 14.4375 C21.99817583 12.20834331 22.7157775 9.2943099 24 6 C26.6119403 1.19402985 26.6119403 1.19402985 29 0 C32.7621596 -0.34834811 35.14128053 -0.50642431 38.4375 1.4375 C40.81562727 5.33762872 40.79086293 8.55313036 40 13 C37.38167682 20.70435803 33.25319971 26.06668466 26.16015625 30.02734375 C18.94773051 33.22794985 11.11572465 33.03453362 3.75 30.4375 C-2.33907118 27.697902 -6.26468462 23.66081691 -9.875 18.125 C-11.74648502 12.9264305 -12.95819496 8.19015992 -10.6875 3 C-7.57208983 -0.69233798 -4.66273498 -0.40195991 0 0 Z " fill="white" transform="translate(157,103)"/>
<path d="M0 0 C1.40680275 -0.00361794 1.40680275 -0.00361794 2.84202576 -0.00730896 C4.81977579 -0.00633161 6.79755356 0.00703517 8.77514648 0.03198242 C11.80221364 0.06633385 14.82636757 0.05262526 17.85351562 0.03320312 C19.77735617 0.04010062 21.70118919 0.04977213 23.625 0.0625 C24.5292421 0.05754013 25.43348419 0.05258026 26.36512756 0.04747009 C32.59110789 0.16422834 32.59110789 0.16422834 35.81225586 2.44946289 C37.95758448 5.71037701 37.84838229 7.81441215 37.24609375 11.62890625 C35.24613485 14.37610254 33.66092897 16.30832529 30.24414062 17.08251953 C27.80341741 17.25784058 25.41144477 17.26955337 22.96484375 17.22265625 C22.07373901 17.22269653 21.18263428 17.22273682 20.26452637 17.22277832 C18.38510058 17.21742946 16.50567488 17.19987375 14.62646484 17.17089844 C11.75548693 17.12904319 8.88685663 17.12983212 6.015625 17.13671875 C4.18618167 17.12622542 2.3567504 17.11328655 0.52734375 17.09765625 C-0.3279895 17.09745483 -1.18332275 17.09725342 -2.0645752 17.0970459 C-6.75851506 17.00418737 -9.94880011 16.68710157 -13.75390625 13.62890625 C-14.63671875 11.76171875 -14.63671875 11.76171875 -14.87890625 9.75390625 C-15.03746094 8.76777344 -15.03746094 8.76777344 -15.19921875 7.76171875 C-13.54858799 -0.14393385 -6.5135033 -0.09571678 0 0 Z " fill="white" transform="translate(155.75390625,452.37109375)"/>
<path d="M0 0 C2.875 1.75 2.875 1.75 5 5 C5.97644847 10.70119912 6.0856927 15.33952882 2.875 20.25 C-0.55187542 22.33592417 -2.0669348 22.81938858 -6 22 C-8.875 20.25 -8.875 20.25 -11 17 C-11.97644847 11.29880088 -12.0856927 6.66047118 -8.875 1.75 C-5.44812458 -0.33592417 -3.9330652 -0.81938858 0 0 Z " fill="white" transform="translate(155,71)"/>
<path d="M0 0 C1.90625 0.4296875 1.90625 0.4296875 4.40625 2.2421875 C6.63232759 6.97260238 6.66202805 11.29348155 5.90625 16.4296875 C3.9823633 20.12946961 2.8910234 21.09444549 -1.03125 22.4296875 C-4.66616294 22.4296875 -6.24239833 21.62930164 -9.09375 19.4296875 C-10.49978618 16.61761515 -10.33932505 14.18959284 -10.40625 11.0546875 C-10.44363281 9.91257812 -10.48101562 8.77046875 -10.51953125 7.59375 C-10.09375 4.4296875 -10.09375 4.4296875 -8.32421875 2.05078125 C-5.34560202 -0.11406278 -3.58267044 -0.22725895 0 0 Z " fill="white" transform="translate(150.09375,411.5703125)"/>
<path d="M0 0 C3.35723487 1.91112863 3.87406248 2.54662492 4.9375 6.375 C5.006634 10.38477188 4.52345646 11.93580287 2 15 C-2.63811124 16.54603708 -7.16125942 16.61455537 -12 16 C-15.1875 13.9375 -15.1875 13.9375 -17 11 C-17.625 7.4375 -17.625 7.4375 -17 4 C-13.07205271 -1.47106944 -6.12555554 -0.93526364 0 0 Z " fill="white" transform="translate(154,259)"/>
<path d="M0 0 C2.84780619 2.23206431 3.84997666 3.54992999 5 7 C5.42921013 15.87034277 5.42921013 15.87034277 3 20 C0.3402643 22.16719206 -1.08837596 21.99534863 -4.5625 21.8125 C-9.08116047 20.74445298 -9.08116047 20.74445298 -11 18 C-11.46875 14.78515625 -11.46875 14.78515625 -11.5 11.0625 C-11.5309375 9.83660156 -11.561875 8.61070313 -11.59375 7.34765625 C-11 4 -11 4 -8.66015625 1.58984375 C-5.41182107 -0.35152544 -3.72276525 -0.63366217 0 0 Z " fill="white" transform="translate(194,71)"/>
<path d="M0 0 C2.90717073 2.21863029 3.83981643 3.51944929 5 7 C5.24891725 11.48051043 5.29402072 15.06739306 3 19 C0.09651429 21.41957143 -1.32650931 22.02693963 -5.125 21.875 C-8.19936398 20.93932401 -9.15891761 20.5668424 -11 18 C-11.43359375 14.78515625 -11.43359375 14.78515625 -11.4375 11.0625 C-11.45683594 9.83660156 -11.47617188 8.61070312 -11.49609375 7.34765625 C-11 4 -11 4 -9.19140625 1.58984375 C-5.99300209 -0.73056711 -3.85040634 -0.55005805 0 0 Z " fill="white" transform="translate(190,412)"/>
<path d="M0 0 C1.1240625 -0.0103125 2.248125 -0.020625 3.40625 -0.03125 C7.11150551 0.605006 8.29487804 1.49638065 10.5 4.5 C11.28456586 7.27032912 11.13108638 9.70027133 10.5 12.5 C8.6875 15 8.6875 15 5.5 16.5 C0.3561403 17.24034562 -3.94906868 17.22985004 -8.6875 15 C-10.87783608 11.97884678 -11.05928288 10.14716647 -11.06640625 6.5 C-9.43683324 0.74592149 -5.42947284 -0.04981168 0 0 Z " fill="white" transform="translate(186.5,258.5)"/>
</svg>
